<?xml version="1.0" standalone="no"?>
<!DOCTYPE svg PUBLIC "-//W3C//DTD SVG 20010904//EN"
 "http://www.w3.org/TR/2001/REC-SVG-20010904/DTD/svg10.dtd">
<svg version="1.0" xmlns="http://www.w3.org/2000/svg"
 width="2625.000000pt" height="1000.000000pt" viewBox="0 0 2625.000000 1000.000000"
 preserveAspectRatio="xMidYMid meet">

<g transform="translate(0.000000,1000.000000) scale(0.100000,-0.100000)"
fill="#000000" stroke="none">
<path d="M9977 7904 c-4 -4 -7 -817 -7 -1806 l0 -1798 305 0 305 0 0 539 0
539 538 5 c492 4 545 6 632 25 131 28 238 65 344 120 326 168 542 464 623 852
24 118 24 390 0 514 -95 475 -389 813 -825 950 -189 59 -175 59 -1077 63 -457
2 -834 1 -838 -3z m1683 -543 c188 -56 332 -175 414 -343 68 -138 81 -197 81
-368 0 -122 -4 -158 -23 -225 -74 -256 -251 -432 -498 -495 -72 -19 -112 -20
-571 -20 l-493 0 0 741 0 741 508 -4 c490 -4 510 -5 582 -27z"/>
<path d="M13113 6413 c3 -1480 3 -1499 24 -1593 58 -261 153 -405 325 -489 46
-23 117 -49 158 -58 96 -21 334 -23 489 -4 l113 14 -6 126 c-4 69 -9 168 -12
218 l-6 93 -27 -7 c-14 -4 -78 -7 -141 -7 -174 -1 -255 37 -311 146 -54 107
-53 54 -56 1616 l-4 1442 -275 0 -275 0 4 -1497z"/>
<path d="M22083 7896 c-147 -48 -226 -155 -226 -306 -1 -91 13 -141 54 -203
111 -167 403 -184 538 -31 54 62 76 129 76 234 0 73 -4 93 -28 142 -32 65 -90
121 -156 151 -58 26 -197 33 -258 13z"/>
<path d="M17687 7383 c-4 -3 -7 -141 -7 -305 l0 -298 -250 0 -250 0 0 -225 0
-225 249 0 249 0 5 -632 c3 -529 7 -648 20 -725 71 -392 254 -610 592 -705
101 -28 381 -36 525 -14 103 16 347 72 368 85 11 6 -37 404 -50 417 -3 3 -42
-6 -86 -20 -197 -62 -397 -79 -513 -43 -114 34 -207 123 -250 237 -47 124 -49
149 -49 793 l0 607 430 0 430 0 0 225 0 225 -430 0 -430 0 -2 303 -3 302 -271
3 c-149 1 -273 -1 -277 -5z"/>
<path d="M15584 6829 c-643 -46 -1087 -413 -1199 -991 -22 -114 -30 -331 -16
-456 67 -611 390 -1009 891 -1098 116 -20 324 -20 424 1 191 40 375 140 494
269 45 49 123 165 144 213 11 25 13 16 19 -82 6 -119 22 -174 64 -235 91 -132
303 -186 570 -147 l80 12 3 190 2 191 -68 1 c-110 2 -170 47 -191 143 -7 35
-11 328 -11 909 l0 858 -117 46 c-279 108 -520 162 -798 177 -93 5 -172 9
-175 8 -3 0 -55 -4 -116 -9z m331 -460 c92 -12 198 -39 278 -69 l57 -21 0
-382 c0 -503 -14 -609 -106 -796 -109 -220 -296 -334 -549 -334 -190 1 -332
57 -454 181 -149 150 -216 341 -215 612 1 217 46 379 143 516 143 203 356 301
658 303 61 1 146 -4 188 -10z"/>
<path d="M19530 6555 l0 -225 585 0 c348 0 585 -4 585 -9 0 -5 -118 -180 -262
-388 -144 -208 -425 -634 -625 -946 l-363 -568 0 -60 0 -59 1030 0 1030 0 0
245 0 245 -628 2 -628 3 243 355 c134 195 419 627 634 958 318 494 389 610
389 638 l0 34 -995 0 -995 0 0 -225z"/>
<path d="M21910 5540 l0 -1240 280 0 280 0 0 1240 0 1240 -280 0 -280 0 0
-1240z"/>
</g>
</svg>
